<mxfile host="app.diagrams.net" agent="Mozilla/5.0 (Macintosh; Intel Mac OS X 10_15_7) AppleWebKit/537.36 (KHTML, like Gecko) Chrome/133.0.0.0 Safari/537.36" version="26.0.10">
  <diagram name="ページ1" id="e0QjhdpM1NeoFlnNvdo0">
    <mxGraphModel dx="2587" dy="2325" grid="1" gridSize="10" guides="1" tooltips="1" connect="1" arrows="1" fold="1" page="1" pageScale="1" pageWidth="827" pageHeight="1169" math="0" shadow="0">
      <root>
        <mxCell id="0" />
        <mxCell id="1" parent="0" />
        <mxCell id="q4DOAjNo_ZyAKxK9mkyZ-1" value="" style="rounded=0;whiteSpace=wrap;html=1;" vertex="1" parent="1">
          <mxGeometry x="60" y="-10" width="120" height="210" as="geometry" />
        </mxCell>
        <mxCell id="q4DOAjNo_ZyAKxK9mkyZ-2" value="ToDo App" style="rounded=0;whiteSpace=wrap;html=1;" vertex="1" parent="1">
          <mxGeometry x="60" y="-10" width="120" height="30" as="geometry" />
        </mxCell>
        <mxCell id="q4DOAjNo_ZyAKxK9mkyZ-3" value="AチームToDo" style="rounded=0;whiteSpace=wrap;html=1;" vertex="1" parent="1">
          <mxGeometry x="70" y="30" width="100" height="30" as="geometry" />
        </mxCell>
        <mxCell id="q4DOAjNo_ZyAKxK9mkyZ-4" value="BチームToDo" style="rounded=0;whiteSpace=wrap;html=1;" vertex="1" parent="1">
          <mxGeometry x="70" y="70" width="100" height="30" as="geometry" />
        </mxCell>
        <mxCell id="q4DOAjNo_ZyAKxK9mkyZ-5" value="選択画面" style="text;html=1;align=center;verticalAlign=middle;whiteSpace=wrap;rounded=0;" vertex="1" parent="1">
          <mxGeometry x="90" y="-50" width="60" height="30" as="geometry" />
        </mxCell>
        <mxCell id="q4DOAjNo_ZyAKxK9mkyZ-6" value="" style="rounded=0;whiteSpace=wrap;html=1;" vertex="1" parent="1">
          <mxGeometry x="411.25" y="-10" width="120" height="210" as="geometry" />
        </mxCell>
        <mxCell id="q4DOAjNo_ZyAKxK9mkyZ-7" value="Aチーム ToDo" style="rounded=0;whiteSpace=wrap;html=1;" vertex="1" parent="1">
          <mxGeometry x="411.25" y="-10" width="120" height="30" as="geometry" />
        </mxCell>
        <mxCell id="q4DOAjNo_ZyAKxK9mkyZ-29" value="AチームTODO一覧画面&lt;div&gt;（データ取得後: 一覧）&lt;/div&gt;" style="text;html=1;align=center;verticalAlign=middle;whiteSpace=wrap;rounded=0;" vertex="1" parent="1">
          <mxGeometry x="400" y="-50" width="142.5" height="30" as="geometry" />
        </mxCell>
        <mxCell id="q4DOAjNo_ZyAKxK9mkyZ-30" value="" style="rounded=0;whiteSpace=wrap;html=1;" vertex="1" parent="1">
          <mxGeometry x="581.25" y="-10" width="120" height="210" as="geometry" />
        </mxCell>
        <mxCell id="q4DOAjNo_ZyAKxK9mkyZ-31" value="Aチーム ToDo" style="rounded=0;whiteSpace=wrap;html=1;" vertex="1" parent="1">
          <mxGeometry x="581.25" y="-10" width="120" height="30" as="geometry" />
        </mxCell>
        <mxCell id="q4DOAjNo_ZyAKxK9mkyZ-43" value="まだToDoが&lt;div&gt;作成されていません。&lt;/div&gt;&lt;div&gt;&lt;br&gt;&lt;/div&gt;&lt;div&gt;ToDoが作成されると&lt;/div&gt;&lt;div&gt;表示されます。&lt;/div&gt;" style="text;html=1;align=center;verticalAlign=middle;whiteSpace=wrap;rounded=0;fontSize=8;" vertex="1" parent="1">
          <mxGeometry x="591.25" y="50" width="100" height="40" as="geometry" />
        </mxCell>
        <mxCell id="q4DOAjNo_ZyAKxK9mkyZ-44" value="AチームTODO一覧画面&lt;div&gt;（データ取得後: Empty）&lt;/div&gt;" style="text;html=1;align=center;verticalAlign=middle;whiteSpace=wrap;rounded=0;" vertex="1" parent="1">
          <mxGeometry x="570" y="-50" width="142.5" height="30" as="geometry" />
        </mxCell>
        <mxCell id="q4DOAjNo_ZyAKxK9mkyZ-45" value="" style="rounded=0;whiteSpace=wrap;html=1;" vertex="1" parent="1">
          <mxGeometry x="240" y="-10" width="120" height="210" as="geometry" />
        </mxCell>
        <mxCell id="q4DOAjNo_ZyAKxK9mkyZ-46" value="Aチーム ToDo" style="rounded=0;whiteSpace=wrap;html=1;" vertex="1" parent="1">
          <mxGeometry x="240" y="-10" width="120" height="30" as="geometry" />
        </mxCell>
        <mxCell id="q4DOAjNo_ZyAKxK9mkyZ-58" value="AチームTODO一覧画面&lt;div&gt;（データ取得中）&lt;/div&gt;" style="text;html=1;align=center;verticalAlign=middle;whiteSpace=wrap;rounded=0;" vertex="1" parent="1">
          <mxGeometry x="228.75" y="-50" width="142.5" height="30" as="geometry" />
        </mxCell>
        <mxCell id="q4DOAjNo_ZyAKxK9mkyZ-59" value="" style="rounded=0;whiteSpace=wrap;html=1;" vertex="1" parent="1">
          <mxGeometry x="411.25" y="270" width="120" height="210" as="geometry" />
        </mxCell>
        <mxCell id="q4DOAjNo_ZyAKxK9mkyZ-60" value="Aチーム ToDo" style="rounded=0;whiteSpace=wrap;html=1;" vertex="1" parent="1">
          <mxGeometry x="411.25" y="270" width="120" height="30" as="geometry" />
        </mxCell>
        <mxCell id="q4DOAjNo_ZyAKxK9mkyZ-72" value="AチームTODO一覧画面&lt;div&gt;（データ取得後: 失敗）&lt;/div&gt;" style="text;html=1;align=center;verticalAlign=middle;whiteSpace=wrap;rounded=0;" vertex="1" parent="1">
          <mxGeometry x="400" y="230" width="142.5" height="30" as="geometry" />
        </mxCell>
        <mxCell id="q4DOAjNo_ZyAKxK9mkyZ-73" value="Initial" style="rounded=1;whiteSpace=wrap;html=1;" vertex="1" parent="1">
          <mxGeometry x="250.63" y="-280" width="120" height="60" as="geometry" />
        </mxCell>
        <mxCell id="q4DOAjNo_ZyAKxK9mkyZ-74" value="Fetching" style="rounded=1;whiteSpace=wrap;html=1;" vertex="1" parent="1">
          <mxGeometry x="413.38" y="-280" width="120" height="60" as="geometry" />
        </mxCell>
        <mxCell id="q4DOAjNo_ZyAKxK9mkyZ-75" value="Fetched" style="rounded=1;whiteSpace=wrap;html=1;" vertex="1" parent="1">
          <mxGeometry x="413.38" y="-190" width="120" height="60" as="geometry" />
        </mxCell>
        <mxCell id="q4DOAjNo_ZyAKxK9mkyZ-76" value="データ取得中...." style="text;html=1;align=center;verticalAlign=middle;whiteSpace=wrap;rounded=0;" vertex="1" parent="1">
          <mxGeometry x="255" y="80" width="90" height="30" as="geometry" />
        </mxCell>
        <mxCell id="q4DOAjNo_ZyAKxK9mkyZ-77" value="Retryable" style="rounded=1;whiteSpace=wrap;html=1;" vertex="1" parent="1">
          <mxGeometry x="571.88" y="-280" width="120" height="60" as="geometry" />
        </mxCell>
        <mxCell id="q4DOAjNo_ZyAKxK9mkyZ-78" value="" style="endArrow=classic;html=1;rounded=0;exitX=1;exitY=0.5;exitDx=0;exitDy=0;entryX=0;entryY=0.5;entryDx=0;entryDy=0;" edge="1" parent="1" source="q4DOAjNo_ZyAKxK9mkyZ-73" target="q4DOAjNo_ZyAKxK9mkyZ-74">
          <mxGeometry width="50" height="50" relative="1" as="geometry">
            <mxPoint x="480.63" y="-100" as="sourcePoint" />
            <mxPoint x="530.63" y="-150" as="targetPoint" />
          </mxGeometry>
        </mxCell>
        <mxCell id="q4DOAjNo_ZyAKxK9mkyZ-79" value="" style="endArrow=classic;html=1;rounded=0;exitX=0.25;exitY=1;exitDx=0;exitDy=0;entryX=0.25;entryY=0;entryDx=0;entryDy=0;" edge="1" parent="1" source="q4DOAjNo_ZyAKxK9mkyZ-74" target="q4DOAjNo_ZyAKxK9mkyZ-75">
          <mxGeometry width="50" height="50" relative="1" as="geometry">
            <mxPoint x="480.63" y="-100" as="sourcePoint" />
            <mxPoint x="530.63" y="-150" as="targetPoint" />
          </mxGeometry>
        </mxCell>
        <mxCell id="q4DOAjNo_ZyAKxK9mkyZ-80" value="" style="endArrow=classic;html=1;rounded=0;entryX=0.75;entryY=1;entryDx=0;entryDy=0;exitX=0.75;exitY=0;exitDx=0;exitDy=0;" edge="1" parent="1" source="q4DOAjNo_ZyAKxK9mkyZ-75" target="q4DOAjNo_ZyAKxK9mkyZ-74">
          <mxGeometry width="50" height="50" relative="1" as="geometry">
            <mxPoint x="480.63" y="-100" as="sourcePoint" />
            <mxPoint x="530.63" y="-150" as="targetPoint" />
          </mxGeometry>
        </mxCell>
        <mxCell id="q4DOAjNo_ZyAKxK9mkyZ-81" value="" style="endArrow=classic;html=1;rounded=0;entryX=0;entryY=0.25;entryDx=0;entryDy=0;exitX=1;exitY=0.25;exitDx=0;exitDy=0;" edge="1" parent="1" source="q4DOAjNo_ZyAKxK9mkyZ-74" target="q4DOAjNo_ZyAKxK9mkyZ-77">
          <mxGeometry width="50" height="50" relative="1" as="geometry">
            <mxPoint x="480.63" y="-150" as="sourcePoint" />
            <mxPoint x="530.63" y="-200" as="targetPoint" />
          </mxGeometry>
        </mxCell>
        <mxCell id="q4DOAjNo_ZyAKxK9mkyZ-82" value="" style="endArrow=classic;html=1;rounded=0;entryX=1;entryY=0.75;entryDx=0;entryDy=0;exitX=0;exitY=0.75;exitDx=0;exitDy=0;" edge="1" parent="1" source="q4DOAjNo_ZyAKxK9mkyZ-77" target="q4DOAjNo_ZyAKxK9mkyZ-74">
          <mxGeometry width="50" height="50" relative="1" as="geometry">
            <mxPoint x="480.63" y="-150" as="sourcePoint" />
            <mxPoint x="530.63" y="-200" as="targetPoint" />
          </mxGeometry>
        </mxCell>
        <mxCell id="q4DOAjNo_ZyAKxK9mkyZ-83" value="AチームToDo一覧画面状態遷移" style="text;html=1;align=left;verticalAlign=middle;whiteSpace=wrap;rounded=0;" vertex="1" parent="1">
          <mxGeometry x="250.63" y="-320" width="180" height="30" as="geometry" />
        </mxCell>
        <mxCell id="q4DOAjNo_ZyAKxK9mkyZ-84" value="作成" style="ellipse;whiteSpace=wrap;html=1;aspect=fixed;" vertex="1" parent="1">
          <mxGeometry x="490" y="160" width="31.25" height="31.25" as="geometry" />
        </mxCell>
        <mxCell id="q4DOAjNo_ZyAKxK9mkyZ-85" value="作成" style="ellipse;whiteSpace=wrap;html=1;aspect=fixed;" vertex="1" parent="1">
          <mxGeometry x="660.63" y="160" width="31.25" height="31.25" as="geometry" />
        </mxCell>
        <mxCell id="q4DOAjNo_ZyAKxK9mkyZ-86" value="作成" style="ellipse;whiteSpace=wrap;html=1;aspect=fixed;" vertex="1" parent="1">
          <mxGeometry x="318.75" y="160" width="31.25" height="31.25" as="geometry" />
        </mxCell>
        <mxCell id="q4DOAjNo_ZyAKxK9mkyZ-87" value="作成" style="ellipse;whiteSpace=wrap;html=1;aspect=fixed;" vertex="1" parent="1">
          <mxGeometry x="490" y="440" width="31.25" height="31.25" as="geometry" />
        </mxCell>
        <mxCell id="q4DOAjNo_ZyAKxK9mkyZ-88" value="" style="rounded=0;whiteSpace=wrap;html=1;" vertex="1" parent="1">
          <mxGeometry x="815" y="-10" width="120" height="210" as="geometry" />
        </mxCell>
        <mxCell id="q4DOAjNo_ZyAKxK9mkyZ-89" value="ToDo 新規作成" style="rounded=0;whiteSpace=wrap;html=1;" vertex="1" parent="1">
          <mxGeometry x="815" y="-10" width="120" height="30" as="geometry" />
        </mxCell>
        <mxCell id="q4DOAjNo_ZyAKxK9mkyZ-91" value="AチームTODO新規作成画面&lt;div&gt;（初期表示）&lt;/div&gt;" style="text;html=1;align=center;verticalAlign=middle;whiteSpace=wrap;rounded=0;" vertex="1" parent="1">
          <mxGeometry x="790" y="-50" width="170" height="30" as="geometry" />
        </mxCell>
        <mxCell id="q4DOAjNo_ZyAKxK9mkyZ-93" value="Initial" style="rounded=1;whiteSpace=wrap;html=1;" vertex="1" parent="1">
          <mxGeometry x="952.75" y="-290" width="120" height="60" as="geometry" />
        </mxCell>
        <mxCell id="q4DOAjNo_ZyAKxK9mkyZ-95" value="ValidationFailed" style="rounded=1;whiteSpace=wrap;html=1;" vertex="1" parent="1">
          <mxGeometry x="952.75" y="-200" width="120" height="60" as="geometry" />
        </mxCell>
        <mxCell id="q4DOAjNo_ZyAKxK9mkyZ-96" value="Prepared" style="rounded=1;whiteSpace=wrap;html=1;" vertex="1" parent="1">
          <mxGeometry x="1111.25" y="-290" width="120" height="60" as="geometry" />
        </mxCell>
        <mxCell id="q4DOAjNo_ZyAKxK9mkyZ-98" value="" style="endArrow=classic;html=1;rounded=0;exitX=0.25;exitY=1;exitDx=0;exitDy=0;entryX=0.25;entryY=0;entryDx=0;entryDy=0;" edge="1" parent="1" target="q4DOAjNo_ZyAKxK9mkyZ-95">
          <mxGeometry width="50" height="50" relative="1" as="geometry">
            <mxPoint x="982.75" y="-230" as="sourcePoint" />
            <mxPoint x="1070" y="-160" as="targetPoint" />
          </mxGeometry>
        </mxCell>
        <mxCell id="q4DOAjNo_ZyAKxK9mkyZ-99" value="" style="endArrow=classic;html=1;rounded=0;entryX=0.75;entryY=1;entryDx=0;entryDy=0;exitX=0.75;exitY=0;exitDx=0;exitDy=0;" edge="1" parent="1" source="q4DOAjNo_ZyAKxK9mkyZ-95">
          <mxGeometry width="50" height="50" relative="1" as="geometry">
            <mxPoint x="1020" y="-110" as="sourcePoint" />
            <mxPoint x="1042.75" y="-230" as="targetPoint" />
          </mxGeometry>
        </mxCell>
        <mxCell id="q4DOAjNo_ZyAKxK9mkyZ-100" value="" style="endArrow=classic;html=1;rounded=0;entryX=0;entryY=0.25;entryDx=0;entryDy=0;exitX=1;exitY=0.25;exitDx=0;exitDy=0;" edge="1" parent="1" target="q4DOAjNo_ZyAKxK9mkyZ-96">
          <mxGeometry width="50" height="50" relative="1" as="geometry">
            <mxPoint x="1072.75" y="-275" as="sourcePoint" />
            <mxPoint x="1070" y="-210" as="targetPoint" />
          </mxGeometry>
        </mxCell>
        <mxCell id="q4DOAjNo_ZyAKxK9mkyZ-101" value="" style="endArrow=classic;html=1;rounded=0;entryX=1;entryY=0.75;entryDx=0;entryDy=0;exitX=0;exitY=0.75;exitDx=0;exitDy=0;" edge="1" parent="1" source="q4DOAjNo_ZyAKxK9mkyZ-96">
          <mxGeometry width="50" height="50" relative="1" as="geometry">
            <mxPoint x="1020" y="-160" as="sourcePoint" />
            <mxPoint x="1072.75" y="-245" as="targetPoint" />
          </mxGeometry>
        </mxCell>
        <mxCell id="q4DOAjNo_ZyAKxK9mkyZ-102" value="Aチーム新規ToDo作成画面状態遷移" style="text;html=1;align=left;verticalAlign=middle;whiteSpace=wrap;rounded=0;" vertex="1" parent="1">
          <mxGeometry x="800" y="-420" width="200" height="30" as="geometry" />
        </mxCell>
        <mxCell id="q4DOAjNo_ZyAKxK9mkyZ-103" value="Fetching" style="rounded=1;whiteSpace=wrap;html=1;" vertex="1" parent="1">
          <mxGeometry x="1270" y="-290" width="120" height="60" as="geometry" />
        </mxCell>
        <mxCell id="q4DOAjNo_ZyAKxK9mkyZ-104" value="" style="endArrow=classic;html=1;rounded=0;entryX=0;entryY=0.25;entryDx=0;entryDy=0;exitX=1;exitY=0.25;exitDx=0;exitDy=0;" edge="1" parent="1" source="q4DOAjNo_ZyAKxK9mkyZ-96" target="q4DOAjNo_ZyAKxK9mkyZ-103">
          <mxGeometry width="50" height="50" relative="1" as="geometry">
            <mxPoint x="1180" y="-170" as="sourcePoint" />
            <mxPoint x="1230" y="-220" as="targetPoint" />
          </mxGeometry>
        </mxCell>
        <mxCell id="q4DOAjNo_ZyAKxK9mkyZ-105" value="" style="endArrow=classic;html=1;rounded=0;entryX=1;entryY=0.75;entryDx=0;entryDy=0;exitX=0;exitY=0.75;exitDx=0;exitDy=0;" edge="1" parent="1" source="q4DOAjNo_ZyAKxK9mkyZ-103" target="q4DOAjNo_ZyAKxK9mkyZ-96">
          <mxGeometry width="50" height="50" relative="1" as="geometry">
            <mxPoint x="1180" y="-170" as="sourcePoint" />
            <mxPoint x="1230" y="-220" as="targetPoint" />
          </mxGeometry>
        </mxCell>
        <mxCell id="q4DOAjNo_ZyAKxK9mkyZ-106" value="Completed" style="rounded=1;whiteSpace=wrap;html=1;" vertex="1" parent="1">
          <mxGeometry x="1430" y="-290" width="120" height="60" as="geometry" />
        </mxCell>
        <mxCell id="q4DOAjNo_ZyAKxK9mkyZ-107" value="Retryable" style="rounded=1;whiteSpace=wrap;html=1;" vertex="1" parent="1">
          <mxGeometry x="1270" y="-380" width="120" height="60" as="geometry" />
        </mxCell>
        <mxCell id="q4DOAjNo_ZyAKxK9mkyZ-110" value="" style="endArrow=classic;html=1;rounded=0;entryX=0.25;entryY=1;entryDx=0;entryDy=0;exitX=0.25;exitY=0;exitDx=0;exitDy=0;" edge="1" parent="1" source="q4DOAjNo_ZyAKxK9mkyZ-103" target="q4DOAjNo_ZyAKxK9mkyZ-107">
          <mxGeometry width="50" height="50" relative="1" as="geometry">
            <mxPoint x="1220" y="-260" as="sourcePoint" />
            <mxPoint x="1270" y="-310" as="targetPoint" />
          </mxGeometry>
        </mxCell>
        <mxCell id="q4DOAjNo_ZyAKxK9mkyZ-111" value="" style="endArrow=classic;html=1;rounded=0;entryX=0.75;entryY=0;entryDx=0;entryDy=0;exitX=0.75;exitY=1;exitDx=0;exitDy=0;" edge="1" parent="1" source="q4DOAjNo_ZyAKxK9mkyZ-107" target="q4DOAjNo_ZyAKxK9mkyZ-103">
          <mxGeometry width="50" height="50" relative="1" as="geometry">
            <mxPoint x="1220" y="-260" as="sourcePoint" />
            <mxPoint x="1270" y="-310" as="targetPoint" />
          </mxGeometry>
        </mxCell>
        <mxCell id="q4DOAjNo_ZyAKxK9mkyZ-112" value="" style="endArrow=classic;html=1;rounded=0;entryX=0.5;entryY=0;entryDx=0;entryDy=0;exitX=0;exitY=0.5;exitDx=0;exitDy=0;" edge="1" parent="1" source="q4DOAjNo_ZyAKxK9mkyZ-107">
          <mxGeometry width="50" height="50" relative="1" as="geometry">
            <mxPoint x="1220" y="-260" as="sourcePoint" />
            <mxPoint x="1012.75" y="-290" as="targetPoint" />
          </mxGeometry>
        </mxCell>
        <mxCell id="q4DOAjNo_ZyAKxK9mkyZ-113" value="" style="endArrow=classic;html=1;rounded=0;entryX=0;entryY=0.5;entryDx=0;entryDy=0;exitX=1;exitY=0.5;exitDx=0;exitDy=0;" edge="1" parent="1" source="q4DOAjNo_ZyAKxK9mkyZ-103" target="q4DOAjNo_ZyAKxK9mkyZ-106">
          <mxGeometry width="50" height="50" relative="1" as="geometry">
            <mxPoint x="1230" y="-220" as="sourcePoint" />
            <mxPoint x="1280" y="-270" as="targetPoint" />
          </mxGeometry>
        </mxCell>
        <mxCell id="q4DOAjNo_ZyAKxK9mkyZ-114" value="" style="endArrow=none;html=1;rounded=0;exitX=0.5;exitY=0;exitDx=0;exitDy=0;" edge="1" parent="1" source="q4DOAjNo_ZyAKxK9mkyZ-83">
          <mxGeometry width="50" height="50" relative="1" as="geometry">
            <mxPoint x="330" y="-320" as="sourcePoint" />
            <mxPoint x="470" y="-610" as="targetPoint" />
          </mxGeometry>
        </mxCell>
        <mxCell id="q4DOAjNo_ZyAKxK9mkyZ-115" value="「画面」コンテキストで状態を制御するのは、&lt;div&gt;MECEに状態を把握しつつ、必要なComponentに必要な状態を伝播させる整理を促すため&lt;/div&gt;" style="text;html=1;align=center;verticalAlign=middle;whiteSpace=wrap;rounded=0;" vertex="1" parent="1">
          <mxGeometry x="490" y="-660" width="300" height="60" as="geometry" />
        </mxCell>
        <mxCell id="q4DOAjNo_ZyAKxK9mkyZ-117" value="データの取得に&lt;div&gt;失敗しました。&lt;/div&gt;&lt;div&gt;&lt;br&gt;&lt;/div&gt;&lt;div&gt;ネットワーク接続状況をご確認の上、&lt;span style=&quot;background-color: transparent; color: light-dark(rgb(0, 0, 0), rgb(255, 255, 255));&quot;&gt;再度更新してください。&lt;/span&gt;&lt;/div&gt;" style="text;html=1;align=center;verticalAlign=middle;whiteSpace=wrap;rounded=0;fontSize=8;" vertex="1" parent="1">
          <mxGeometry x="419.56" y="330" width="103.38" height="40" as="geometry" />
        </mxCell>
        <mxCell id="q4DOAjNo_ZyAKxK9mkyZ-118" value="更新" style="rounded=1;whiteSpace=wrap;html=1;" vertex="1" parent="1">
          <mxGeometry x="441.25" y="400" width="60" height="20" as="geometry" />
        </mxCell>
        <mxCell id="q4DOAjNo_ZyAKxK9mkyZ-119" value="ToDo" style="text;html=1;align=center;verticalAlign=middle;whiteSpace=wrap;rounded=0;" vertex="1" parent="1">
          <mxGeometry x="820" y="30" width="30" height="15" as="geometry" />
        </mxCell>
        <mxCell id="q4DOAjNo_ZyAKxK9mkyZ-120" value="" style="rounded=1;whiteSpace=wrap;html=1;" vertex="1" parent="1">
          <mxGeometry x="820" y="50" width="110" height="20" as="geometry" />
        </mxCell>
        <mxCell id="q4DOAjNo_ZyAKxK9mkyZ-121" value="期限" style="text;html=1;align=center;verticalAlign=middle;whiteSpace=wrap;rounded=0;" vertex="1" parent="1">
          <mxGeometry x="820" y="92.5" width="30" height="15" as="geometry" />
        </mxCell>
        <mxCell id="q4DOAjNo_ZyAKxK9mkyZ-122" value="" style="rounded=1;whiteSpace=wrap;html=1;" vertex="1" parent="1">
          <mxGeometry x="860" y="90" width="70" height="20" as="geometry" />
        </mxCell>
        <mxCell id="q4DOAjNo_ZyAKxK9mkyZ-123" value="2025/12/10" style="text;html=1;align=center;verticalAlign=middle;whiteSpace=wrap;rounded=0;fontSize=10;" vertex="1" parent="1">
          <mxGeometry x="860" y="95" width="60" height="7.5" as="geometry" />
        </mxCell>
        <mxCell id="q4DOAjNo_ZyAKxK9mkyZ-124" value="作成" style="rounded=0;whiteSpace=wrap;html=1;" vertex="1" parent="1">
          <mxGeometry x="815" y="180" width="120" height="20" as="geometry" />
        </mxCell>
        <mxCell id="q4DOAjNo_ZyAKxK9mkyZ-125" value="0/50" style="text;html=1;align=center;verticalAlign=middle;whiteSpace=wrap;rounded=0;" vertex="1" parent="1">
          <mxGeometry x="892.75" y="72" width="37.25" height="12.5" as="geometry" />
        </mxCell>
        <mxCell id="q4DOAjNo_ZyAKxK9mkyZ-126" value="" style="rounded=0;whiteSpace=wrap;html=1;" vertex="1" parent="1">
          <mxGeometry x="1015" y="-15" width="120" height="210" as="geometry" />
        </mxCell>
        <mxCell id="q4DOAjNo_ZyAKxK9mkyZ-127" value="ToDo 新規作成" style="rounded=0;whiteSpace=wrap;html=1;" vertex="1" parent="1">
          <mxGeometry x="1015" y="-15" width="120" height="30" as="geometry" />
        </mxCell>
        <mxCell id="q4DOAjNo_ZyAKxK9mkyZ-128" value="AチームTODO新規作成画面&lt;div&gt;（準備完了）&lt;/div&gt;" style="text;html=1;align=center;verticalAlign=middle;whiteSpace=wrap;rounded=0;" vertex="1" parent="1">
          <mxGeometry x="990" y="-55" width="170" height="30" as="geometry" />
        </mxCell>
        <mxCell id="q4DOAjNo_ZyAKxK9mkyZ-129" value="ToDo" style="text;html=1;align=center;verticalAlign=middle;whiteSpace=wrap;rounded=0;" vertex="1" parent="1">
          <mxGeometry x="1020" y="25" width="30" height="15" as="geometry" />
        </mxCell>
        <mxCell id="q4DOAjNo_ZyAKxK9mkyZ-130" value="mtg場所の設定" style="rounded=1;whiteSpace=wrap;html=1;align=left;fontSize=10;" vertex="1" parent="1">
          <mxGeometry x="1020" y="45" width="110" height="20" as="geometry" />
        </mxCell>
        <mxCell id="q4DOAjNo_ZyAKxK9mkyZ-131" value="期限" style="text;html=1;align=center;verticalAlign=middle;whiteSpace=wrap;rounded=0;" vertex="1" parent="1">
          <mxGeometry x="1020" y="87.5" width="30" height="15" as="geometry" />
        </mxCell>
        <mxCell id="q4DOAjNo_ZyAKxK9mkyZ-132" value="" style="rounded=1;whiteSpace=wrap;html=1;" vertex="1" parent="1">
          <mxGeometry x="1060" y="85" width="70" height="20" as="geometry" />
        </mxCell>
        <mxCell id="q4DOAjNo_ZyAKxK9mkyZ-133" value="2025/12/10" style="text;html=1;align=center;verticalAlign=middle;whiteSpace=wrap;rounded=0;fontSize=10;" vertex="1" parent="1">
          <mxGeometry x="1060" y="90" width="60" height="7.5" as="geometry" />
        </mxCell>
        <mxCell id="q4DOAjNo_ZyAKxK9mkyZ-134" value="作成" style="rounded=0;whiteSpace=wrap;html=1;" vertex="1" parent="1">
          <mxGeometry x="1015" y="175" width="120" height="20" as="geometry" />
        </mxCell>
        <mxCell id="q4DOAjNo_ZyAKxK9mkyZ-135" value="8/50" style="text;html=1;align=center;verticalAlign=middle;whiteSpace=wrap;rounded=0;" vertex="1" parent="1">
          <mxGeometry x="1092.75" y="67" width="37.25" height="12.5" as="geometry" />
        </mxCell>
        <mxCell id="q4DOAjNo_ZyAKxK9mkyZ-136" value="" style="rounded=0;whiteSpace=wrap;html=1;" vertex="1" parent="1">
          <mxGeometry x="1205" y="-15" width="120" height="210" as="geometry" />
        </mxCell>
        <mxCell id="q4DOAjNo_ZyAKxK9mkyZ-137" value="ToDo 新規作成" style="rounded=0;whiteSpace=wrap;html=1;" vertex="1" parent="1">
          <mxGeometry x="1205" y="-15" width="120" height="30" as="geometry" />
        </mxCell>
        <mxCell id="q4DOAjNo_ZyAKxK9mkyZ-138" value="AチームTODO新規作成画面&lt;div&gt;（クライアントバリデーション失敗）&lt;/div&gt;" style="text;html=1;align=center;verticalAlign=middle;whiteSpace=wrap;rounded=0;" vertex="1" parent="1">
          <mxGeometry x="1180" y="-65" width="170" height="45" as="geometry" />
        </mxCell>
        <mxCell id="q4DOAjNo_ZyAKxK9mkyZ-139" value="ToDo" style="text;html=1;align=center;verticalAlign=middle;whiteSpace=wrap;rounded=0;" vertex="1" parent="1">
          <mxGeometry x="1210" y="25" width="30" height="15" as="geometry" />
        </mxCell>
        <mxCell id="q4DOAjNo_ZyAKxK9mkyZ-140" value="" style="rounded=1;whiteSpace=wrap;html=1;align=left;fontSize=10;" vertex="1" parent="1">
          <mxGeometry x="1210" y="45" width="110" height="20" as="geometry" />
        </mxCell>
        <mxCell id="q4DOAjNo_ZyAKxK9mkyZ-141" value="期限" style="text;html=1;align=center;verticalAlign=middle;whiteSpace=wrap;rounded=0;" vertex="1" parent="1">
          <mxGeometry x="1210" y="92.5" width="30" height="15" as="geometry" />
        </mxCell>
        <mxCell id="q4DOAjNo_ZyAKxK9mkyZ-142" value="" style="rounded=1;whiteSpace=wrap;html=1;" vertex="1" parent="1">
          <mxGeometry x="1250" y="90" width="70" height="20" as="geometry" />
        </mxCell>
        <mxCell id="q4DOAjNo_ZyAKxK9mkyZ-143" value="2025/12/10" style="text;html=1;align=center;verticalAlign=middle;whiteSpace=wrap;rounded=0;fontSize=10;" vertex="1" parent="1">
          <mxGeometry x="1250" y="95" width="60" height="7.5" as="geometry" />
        </mxCell>
        <mxCell id="q4DOAjNo_ZyAKxK9mkyZ-144" value="作成" style="rounded=0;whiteSpace=wrap;html=1;" vertex="1" parent="1">
          <mxGeometry x="1205" y="175" width="120" height="20" as="geometry" />
        </mxCell>
        <mxCell id="q4DOAjNo_ZyAKxK9mkyZ-145" value="0/50" style="text;html=1;align=center;verticalAlign=middle;whiteSpace=wrap;rounded=0;" vertex="1" parent="1">
          <mxGeometry x="1282.75" y="67" width="37.25" height="12.5" as="geometry" />
        </mxCell>
        <mxCell id="q4DOAjNo_ZyAKxK9mkyZ-146" value="1文字以上入力してください" style="text;html=1;align=left;verticalAlign=middle;whiteSpace=wrap;rounded=0;fontSize=8;" vertex="1" parent="1">
          <mxGeometry x="1210" y="72" width="70" height="10" as="geometry" />
        </mxCell>
        <mxCell id="q4DOAjNo_ZyAKxK9mkyZ-147" value="" style="rounded=0;whiteSpace=wrap;html=1;" vertex="1" parent="1">
          <mxGeometry x="1015" y="300" width="120" height="210" as="geometry" />
        </mxCell>
        <mxCell id="q4DOAjNo_ZyAKxK9mkyZ-148" value="ToDo 新規作成" style="rounded=0;whiteSpace=wrap;html=1;" vertex="1" parent="1">
          <mxGeometry x="1015" y="300" width="120" height="30" as="geometry" />
        </mxCell>
        <mxCell id="q4DOAjNo_ZyAKxK9mkyZ-149" value="AチームTODO新規作成画面&lt;div&gt;（新規作成中）&lt;/div&gt;" style="text;html=1;align=center;verticalAlign=middle;whiteSpace=wrap;rounded=0;" vertex="1" parent="1">
          <mxGeometry x="990" y="260" width="170" height="30" as="geometry" />
        </mxCell>
        <mxCell id="q4DOAjNo_ZyAKxK9mkyZ-150" value="ToDo" style="text;html=1;align=center;verticalAlign=middle;whiteSpace=wrap;rounded=0;" vertex="1" parent="1">
          <mxGeometry x="1020" y="340" width="30" height="15" as="geometry" />
        </mxCell>
        <mxCell id="q4DOAjNo_ZyAKxK9mkyZ-151" value="mtg場所の設定" style="rounded=1;whiteSpace=wrap;html=1;align=left;fontSize=10;" vertex="1" parent="1">
          <mxGeometry x="1020" y="360" width="110" height="20" as="geometry" />
        </mxCell>
        <mxCell id="q4DOAjNo_ZyAKxK9mkyZ-152" value="期限" style="text;html=1;align=center;verticalAlign=middle;whiteSpace=wrap;rounded=0;" vertex="1" parent="1">
          <mxGeometry x="1020" y="402.5" width="30" height="15" as="geometry" />
        </mxCell>
        <mxCell id="q4DOAjNo_ZyAKxK9mkyZ-153" value="" style="rounded=1;whiteSpace=wrap;html=1;" vertex="1" parent="1">
          <mxGeometry x="1060" y="400" width="70" height="20" as="geometry" />
        </mxCell>
        <mxCell id="q4DOAjNo_ZyAKxK9mkyZ-154" value="2025/12/10" style="text;html=1;align=center;verticalAlign=middle;whiteSpace=wrap;rounded=0;fontSize=10;" vertex="1" parent="1">
          <mxGeometry x="1060" y="405" width="60" height="7.5" as="geometry" />
        </mxCell>
        <mxCell id="q4DOAjNo_ZyAKxK9mkyZ-155" value="作成" style="rounded=0;whiteSpace=wrap;html=1;" vertex="1" parent="1">
          <mxGeometry x="1015" y="490" width="120" height="20" as="geometry" />
        </mxCell>
        <mxCell id="q4DOAjNo_ZyAKxK9mkyZ-156" value="8/50" style="text;html=1;align=center;verticalAlign=middle;whiteSpace=wrap;rounded=0;" vertex="1" parent="1">
          <mxGeometry x="1092.75" y="382" width="37.25" height="12.5" as="geometry" />
        </mxCell>
        <mxCell id="q4DOAjNo_ZyAKxK9mkyZ-157" value="" style="rounded=0;whiteSpace=wrap;html=1;strokeColor=none;opacity=70;fillColor=#000000;" vertex="1" parent="1">
          <mxGeometry x="1015" y="300" width="120" height="210" as="geometry" />
        </mxCell>
        <mxCell id="q4DOAjNo_ZyAKxK9mkyZ-159" value="新規作成中..." style="text;html=1;align=center;verticalAlign=middle;whiteSpace=wrap;rounded=0;fontColor=#FFFFFF;" vertex="1" parent="1">
          <mxGeometry x="1038.5" y="380" width="73" height="30" as="geometry" />
        </mxCell>
        <mxCell id="q4DOAjNo_ZyAKxK9mkyZ-160" value="" style="rounded=0;whiteSpace=wrap;html=1;" vertex="1" parent="1">
          <mxGeometry x="1205" y="300" width="120" height="210" as="geometry" />
        </mxCell>
        <mxCell id="q4DOAjNo_ZyAKxK9mkyZ-161" value="ToDo 新規作成" style="rounded=0;whiteSpace=wrap;html=1;" vertex="1" parent="1">
          <mxGeometry x="1205" y="300" width="120" height="30" as="geometry" />
        </mxCell>
        <mxCell id="q4DOAjNo_ZyAKxK9mkyZ-162" value="AチームTODO新規作成画面&lt;div&gt;（新規作成失敗）&lt;/div&gt;" style="text;html=1;align=center;verticalAlign=middle;whiteSpace=wrap;rounded=0;" vertex="1" parent="1">
          <mxGeometry x="1180" y="260" width="170" height="30" as="geometry" />
        </mxCell>
        <mxCell id="q4DOAjNo_ZyAKxK9mkyZ-163" value="ToDo" style="text;html=1;align=center;verticalAlign=middle;whiteSpace=wrap;rounded=0;" vertex="1" parent="1">
          <mxGeometry x="1210" y="340" width="30" height="15" as="geometry" />
        </mxCell>
        <mxCell id="q4DOAjNo_ZyAKxK9mkyZ-164" value="mtg場所の設定" style="rounded=1;whiteSpace=wrap;html=1;align=left;fontSize=10;" vertex="1" parent="1">
          <mxGeometry x="1210" y="360" width="110" height="20" as="geometry" />
        </mxCell>
        <mxCell id="q4DOAjNo_ZyAKxK9mkyZ-165" value="期限" style="text;html=1;align=center;verticalAlign=middle;whiteSpace=wrap;rounded=0;" vertex="1" parent="1">
          <mxGeometry x="1210" y="402.5" width="30" height="15" as="geometry" />
        </mxCell>
        <mxCell id="q4DOAjNo_ZyAKxK9mkyZ-166" value="" style="rounded=1;whiteSpace=wrap;html=1;" vertex="1" parent="1">
          <mxGeometry x="1250" y="400" width="70" height="20" as="geometry" />
        </mxCell>
        <mxCell id="q4DOAjNo_ZyAKxK9mkyZ-167" value="2025/12/10" style="text;html=1;align=center;verticalAlign=middle;whiteSpace=wrap;rounded=0;fontSize=10;" vertex="1" parent="1">
          <mxGeometry x="1250" y="405" width="60" height="7.5" as="geometry" />
        </mxCell>
        <mxCell id="q4DOAjNo_ZyAKxK9mkyZ-168" value="作成" style="rounded=0;whiteSpace=wrap;html=1;" vertex="1" parent="1">
          <mxGeometry x="1205" y="490" width="120" height="20" as="geometry" />
        </mxCell>
        <mxCell id="q4DOAjNo_ZyAKxK9mkyZ-169" value="8/50" style="text;html=1;align=center;verticalAlign=middle;whiteSpace=wrap;rounded=0;" vertex="1" parent="1">
          <mxGeometry x="1282.75" y="382" width="37.25" height="12.5" as="geometry" />
        </mxCell>
        <mxCell id="q4DOAjNo_ZyAKxK9mkyZ-170" value="" style="rounded=0;whiteSpace=wrap;html=1;strokeColor=none;opacity=70;fillColor=#000000;" vertex="1" parent="1">
          <mxGeometry x="1205" y="300" width="120" height="210" as="geometry" />
        </mxCell>
        <mxCell id="q4DOAjNo_ZyAKxK9mkyZ-172" value="新規作成しました。&lt;div&gt;一覧画面に表示されます。&lt;/div&gt;&lt;div&gt;&lt;br&gt;&lt;/div&gt;&lt;div&gt;&lt;br&gt;&lt;/div&gt;" style="rounded=1;whiteSpace=wrap;html=1;fontSize=8;" vertex="1" parent="1">
          <mxGeometry x="1210" y="365" width="110" height="60" as="geometry" />
        </mxCell>
        <mxCell id="q4DOAjNo_ZyAKxK9mkyZ-173" value="" style="endArrow=none;html=1;rounded=0;" edge="1" parent="1">
          <mxGeometry width="50" height="50" relative="1" as="geometry">
            <mxPoint x="1210" y="405" as="sourcePoint" />
            <mxPoint x="1320" y="405" as="targetPoint" />
          </mxGeometry>
        </mxCell>
        <mxCell id="q4DOAjNo_ZyAKxK9mkyZ-175" value="一覧画面に戻る" style="text;html=1;align=center;verticalAlign=middle;whiteSpace=wrap;rounded=0;fontSize=8;" vertex="1" parent="1">
          <mxGeometry x="1235" y="405" width="60" height="20" as="geometry" />
        </mxCell>
        <mxCell id="q4DOAjNo_ZyAKxK9mkyZ-176" value="" style="rounded=0;whiteSpace=wrap;html=1;" vertex="1" parent="1">
          <mxGeometry x="1405" y="300" width="120" height="210" as="geometry" />
        </mxCell>
        <mxCell id="q4DOAjNo_ZyAKxK9mkyZ-177" value="ToDo 新規作成" style="rounded=0;whiteSpace=wrap;html=1;" vertex="1" parent="1">
          <mxGeometry x="1405" y="300" width="120" height="30" as="geometry" />
        </mxCell>
        <mxCell id="q4DOAjNo_ZyAKxK9mkyZ-178" value="AチームTODO新規作成画面&lt;div&gt;（新規作成成功）&lt;/div&gt;" style="text;html=1;align=center;verticalAlign=middle;whiteSpace=wrap;rounded=0;" vertex="1" parent="1">
          <mxGeometry x="1380" y="260" width="170" height="30" as="geometry" />
        </mxCell>
        <mxCell id="q4DOAjNo_ZyAKxK9mkyZ-179" value="ToDo" style="text;html=1;align=center;verticalAlign=middle;whiteSpace=wrap;rounded=0;" vertex="1" parent="1">
          <mxGeometry x="1410" y="340" width="30" height="15" as="geometry" />
        </mxCell>
        <mxCell id="q4DOAjNo_ZyAKxK9mkyZ-180" value="mtg場所の設定" style="rounded=1;whiteSpace=wrap;html=1;align=left;fontSize=10;" vertex="1" parent="1">
          <mxGeometry x="1410" y="360" width="110" height="20" as="geometry" />
        </mxCell>
        <mxCell id="q4DOAjNo_ZyAKxK9mkyZ-181" value="期限" style="text;html=1;align=center;verticalAlign=middle;whiteSpace=wrap;rounded=0;" vertex="1" parent="1">
          <mxGeometry x="1410" y="402.5" width="30" height="15" as="geometry" />
        </mxCell>
        <mxCell id="q4DOAjNo_ZyAKxK9mkyZ-182" value="" style="rounded=1;whiteSpace=wrap;html=1;" vertex="1" parent="1">
          <mxGeometry x="1450" y="400" width="70" height="20" as="geometry" />
        </mxCell>
        <mxCell id="q4DOAjNo_ZyAKxK9mkyZ-183" value="2025/12/10" style="text;html=1;align=center;verticalAlign=middle;whiteSpace=wrap;rounded=0;fontSize=10;" vertex="1" parent="1">
          <mxGeometry x="1450" y="405" width="60" height="7.5" as="geometry" />
        </mxCell>
        <mxCell id="q4DOAjNo_ZyAKxK9mkyZ-184" value="作成" style="rounded=0;whiteSpace=wrap;html=1;" vertex="1" parent="1">
          <mxGeometry x="1405" y="490" width="120" height="20" as="geometry" />
        </mxCell>
        <mxCell id="q4DOAjNo_ZyAKxK9mkyZ-185" value="8/50" style="text;html=1;align=center;verticalAlign=middle;whiteSpace=wrap;rounded=0;" vertex="1" parent="1">
          <mxGeometry x="1482.75" y="382" width="37.25" height="12.5" as="geometry" />
        </mxCell>
        <mxCell id="q4DOAjNo_ZyAKxK9mkyZ-186" value="" style="rounded=0;whiteSpace=wrap;html=1;strokeColor=none;opacity=70;fillColor=#000000;" vertex="1" parent="1">
          <mxGeometry x="1405" y="300" width="120" height="210" as="geometry" />
        </mxCell>
        <mxCell id="q4DOAjNo_ZyAKxK9mkyZ-187" value="&lt;div&gt;作成に失敗しました。&lt;/div&gt;&lt;div&gt;ネットワーク接続状況を&lt;/div&gt;&lt;div&gt;ご確認ください。&lt;/div&gt;&lt;div&gt;&lt;br&gt;&lt;/div&gt;&lt;div&gt;&lt;br&gt;&lt;/div&gt;" style="rounded=1;whiteSpace=wrap;html=1;fontSize=8;" vertex="1" parent="1">
          <mxGeometry x="1410" y="365" width="110" height="60" as="geometry" />
        </mxCell>
        <mxCell id="q4DOAjNo_ZyAKxK9mkyZ-188" value="" style="endArrow=none;html=1;rounded=0;" edge="1" parent="1">
          <mxGeometry width="50" height="50" relative="1" as="geometry">
            <mxPoint x="1410" y="405" as="sourcePoint" />
            <mxPoint x="1520" y="405" as="targetPoint" />
          </mxGeometry>
        </mxCell>
        <mxCell id="q4DOAjNo_ZyAKxK9mkyZ-191" value="OK" style="text;html=1;align=center;verticalAlign=middle;whiteSpace=wrap;rounded=0;fontSize=8;" vertex="1" parent="1">
          <mxGeometry x="1435" y="405" width="60" height="20" as="geometry" />
        </mxCell>
        <mxCell id="q4DOAjNo_ZyAKxK9mkyZ-192" value="Initial" style="rounded=1;whiteSpace=wrap;html=1;" vertex="1" parent="1">
          <mxGeometry x="-20" y="-280" width="120" height="60" as="geometry" />
        </mxCell>
        <mxCell id="q4DOAjNo_ZyAKxK9mkyZ-193" value="選択画面状態遷移" style="text;html=1;align=left;verticalAlign=middle;whiteSpace=wrap;rounded=0;" vertex="1" parent="1">
          <mxGeometry x="-20" y="-320" width="110" height="30" as="geometry" />
        </mxCell>
        <mxCell id="q4DOAjNo_ZyAKxK9mkyZ-194" value="" style="rounded=0;whiteSpace=wrap;html=1;" vertex="1" parent="1">
          <mxGeometry x="825" y="1050" width="120" height="210" as="geometry" />
        </mxCell>
        <mxCell id="q4DOAjNo_ZyAKxK9mkyZ-195" value="ToDo 更新" style="rounded=0;whiteSpace=wrap;html=1;" vertex="1" parent="1">
          <mxGeometry x="825" y="1050" width="120" height="30" as="geometry" />
        </mxCell>
        <mxCell id="q4DOAjNo_ZyAKxK9mkyZ-196" value="AチームTODO更新画面&lt;div&gt;（初期表示）&lt;/div&gt;" style="text;html=1;align=center;verticalAlign=middle;whiteSpace=wrap;rounded=0;" vertex="1" parent="1">
          <mxGeometry x="800" y="1010" width="170" height="30" as="geometry" />
        </mxCell>
        <mxCell id="q4DOAjNo_ZyAKxK9mkyZ-197" value="Initial" style="rounded=1;whiteSpace=wrap;html=1;" vertex="1" parent="1">
          <mxGeometry x="962.75" y="770" width="120" height="60" as="geometry" />
        </mxCell>
        <mxCell id="q4DOAjNo_ZyAKxK9mkyZ-198" value="ValidationFailed" style="rounded=1;whiteSpace=wrap;html=1;" vertex="1" parent="1">
          <mxGeometry x="962.75" y="860" width="120" height="60" as="geometry" />
        </mxCell>
        <mxCell id="q4DOAjNo_ZyAKxK9mkyZ-199" value="Prepared" style="rounded=1;whiteSpace=wrap;html=1;" vertex="1" parent="1">
          <mxGeometry x="1121.25" y="770" width="120" height="60" as="geometry" />
        </mxCell>
        <mxCell id="q4DOAjNo_ZyAKxK9mkyZ-200" value="" style="endArrow=classic;html=1;rounded=0;exitX=0.25;exitY=1;exitDx=0;exitDy=0;entryX=0.25;entryY=0;entryDx=0;entryDy=0;" edge="1" parent="1" target="q4DOAjNo_ZyAKxK9mkyZ-198">
          <mxGeometry width="50" height="50" relative="1" as="geometry">
            <mxPoint x="992.75" y="830" as="sourcePoint" />
            <mxPoint x="1080" y="900" as="targetPoint" />
          </mxGeometry>
        </mxCell>
        <mxCell id="q4DOAjNo_ZyAKxK9mkyZ-201" value="" style="endArrow=classic;html=1;rounded=0;entryX=0.75;entryY=1;entryDx=0;entryDy=0;exitX=0.75;exitY=0;exitDx=0;exitDy=0;" edge="1" parent="1" source="q4DOAjNo_ZyAKxK9mkyZ-198">
          <mxGeometry width="50" height="50" relative="1" as="geometry">
            <mxPoint x="1030" y="950" as="sourcePoint" />
            <mxPoint x="1052.75" y="830" as="targetPoint" />
          </mxGeometry>
        </mxCell>
        <mxCell id="q4DOAjNo_ZyAKxK9mkyZ-202" value="" style="endArrow=classic;html=1;rounded=0;entryX=0;entryY=0.25;entryDx=0;entryDy=0;exitX=1;exitY=0.25;exitDx=0;exitDy=0;" edge="1" parent="1" target="q4DOAjNo_ZyAKxK9mkyZ-199">
          <mxGeometry width="50" height="50" relative="1" as="geometry">
            <mxPoint x="1082.75" y="785" as="sourcePoint" />
            <mxPoint x="1080" y="850" as="targetPoint" />
          </mxGeometry>
        </mxCell>
        <mxCell id="q4DOAjNo_ZyAKxK9mkyZ-203" value="" style="endArrow=classic;html=1;rounded=0;entryX=1;entryY=0.75;entryDx=0;entryDy=0;exitX=0;exitY=0.75;exitDx=0;exitDy=0;" edge="1" parent="1" source="q4DOAjNo_ZyAKxK9mkyZ-199">
          <mxGeometry width="50" height="50" relative="1" as="geometry">
            <mxPoint x="1030" y="900" as="sourcePoint" />
            <mxPoint x="1082.75" y="815" as="targetPoint" />
          </mxGeometry>
        </mxCell>
        <mxCell id="q4DOAjNo_ZyAKxK9mkyZ-204" value="AチームToDo更新画面状態遷移" style="text;html=1;align=left;verticalAlign=middle;whiteSpace=wrap;rounded=0;" vertex="1" parent="1">
          <mxGeometry x="810" y="640" width="200" height="30" as="geometry" />
        </mxCell>
        <mxCell id="q4DOAjNo_ZyAKxK9mkyZ-205" value="Fetching" style="rounded=1;whiteSpace=wrap;html=1;" vertex="1" parent="1">
          <mxGeometry x="1280" y="770" width="120" height="60" as="geometry" />
        </mxCell>
        <mxCell id="q4DOAjNo_ZyAKxK9mkyZ-206" value="" style="endArrow=classic;html=1;rounded=0;entryX=0;entryY=0.25;entryDx=0;entryDy=0;exitX=1;exitY=0.25;exitDx=0;exitDy=0;" edge="1" parent="1" source="q4DOAjNo_ZyAKxK9mkyZ-199" target="q4DOAjNo_ZyAKxK9mkyZ-205">
          <mxGeometry width="50" height="50" relative="1" as="geometry">
            <mxPoint x="1190" y="890" as="sourcePoint" />
            <mxPoint x="1240" y="840" as="targetPoint" />
          </mxGeometry>
        </mxCell>
        <mxCell id="q4DOAjNo_ZyAKxK9mkyZ-207" value="" style="endArrow=classic;html=1;rounded=0;entryX=1;entryY=0.75;entryDx=0;entryDy=0;exitX=0;exitY=0.75;exitDx=0;exitDy=0;" edge="1" parent="1" source="q4DOAjNo_ZyAKxK9mkyZ-205" target="q4DOAjNo_ZyAKxK9mkyZ-199">
          <mxGeometry width="50" height="50" relative="1" as="geometry">
            <mxPoint x="1190" y="890" as="sourcePoint" />
            <mxPoint x="1240" y="840" as="targetPoint" />
          </mxGeometry>
        </mxCell>
        <mxCell id="q4DOAjNo_ZyAKxK9mkyZ-208" value="Completed" style="rounded=1;whiteSpace=wrap;html=1;" vertex="1" parent="1">
          <mxGeometry x="1440" y="770" width="120" height="60" as="geometry" />
        </mxCell>
        <mxCell id="q4DOAjNo_ZyAKxK9mkyZ-209" value="Retryable" style="rounded=1;whiteSpace=wrap;html=1;" vertex="1" parent="1">
          <mxGeometry x="1280" y="680" width="120" height="60" as="geometry" />
        </mxCell>
        <mxCell id="q4DOAjNo_ZyAKxK9mkyZ-210" value="" style="endArrow=classic;html=1;rounded=0;entryX=0.25;entryY=1;entryDx=0;entryDy=0;exitX=0.25;exitY=0;exitDx=0;exitDy=0;" edge="1" parent="1" source="q4DOAjNo_ZyAKxK9mkyZ-205" target="q4DOAjNo_ZyAKxK9mkyZ-209">
          <mxGeometry width="50" height="50" relative="1" as="geometry">
            <mxPoint x="1230" y="800" as="sourcePoint" />
            <mxPoint x="1280" y="750" as="targetPoint" />
          </mxGeometry>
        </mxCell>
        <mxCell id="q4DOAjNo_ZyAKxK9mkyZ-211" value="" style="endArrow=classic;html=1;rounded=0;entryX=0.75;entryY=0;entryDx=0;entryDy=0;exitX=0.75;exitY=1;exitDx=0;exitDy=0;" edge="1" parent="1" source="q4DOAjNo_ZyAKxK9mkyZ-209" target="q4DOAjNo_ZyAKxK9mkyZ-205">
          <mxGeometry width="50" height="50" relative="1" as="geometry">
            <mxPoint x="1230" y="800" as="sourcePoint" />
            <mxPoint x="1280" y="750" as="targetPoint" />
          </mxGeometry>
        </mxCell>
        <mxCell id="q4DOAjNo_ZyAKxK9mkyZ-212" value="" style="endArrow=classic;html=1;rounded=0;entryX=0.5;entryY=0;entryDx=0;entryDy=0;exitX=0;exitY=0.5;exitDx=0;exitDy=0;" edge="1" parent="1" source="q4DOAjNo_ZyAKxK9mkyZ-209">
          <mxGeometry width="50" height="50" relative="1" as="geometry">
            <mxPoint x="1230" y="800" as="sourcePoint" />
            <mxPoint x="1022.75" y="770" as="targetPoint" />
          </mxGeometry>
        </mxCell>
        <mxCell id="q4DOAjNo_ZyAKxK9mkyZ-213" value="" style="endArrow=classic;html=1;rounded=0;entryX=0;entryY=0.5;entryDx=0;entryDy=0;exitX=1;exitY=0.5;exitDx=0;exitDy=0;" edge="1" parent="1" source="q4DOAjNo_ZyAKxK9mkyZ-205" target="q4DOAjNo_ZyAKxK9mkyZ-208">
          <mxGeometry width="50" height="50" relative="1" as="geometry">
            <mxPoint x="1240" y="840" as="sourcePoint" />
            <mxPoint x="1290" y="790" as="targetPoint" />
          </mxGeometry>
        </mxCell>
        <mxCell id="q4DOAjNo_ZyAKxK9mkyZ-214" value="ToDo" style="text;html=1;align=center;verticalAlign=middle;whiteSpace=wrap;rounded=0;" vertex="1" parent="1">
          <mxGeometry x="830" y="1090" width="30" height="15" as="geometry" />
        </mxCell>
        <mxCell id="q4DOAjNo_ZyAKxK9mkyZ-215" value="&lt;span style=&quot;font-size: 10px;&quot;&gt;mtg場所の設定&lt;/span&gt;" style="rounded=1;whiteSpace=wrap;html=1;align=left;" vertex="1" parent="1">
          <mxGeometry x="830" y="1110" width="110" height="20" as="geometry" />
        </mxCell>
        <mxCell id="q4DOAjNo_ZyAKxK9mkyZ-216" value="期限" style="text;html=1;align=center;verticalAlign=middle;whiteSpace=wrap;rounded=0;" vertex="1" parent="1">
          <mxGeometry x="830" y="1152.5" width="30" height="15" as="geometry" />
        </mxCell>
        <mxCell id="q4DOAjNo_ZyAKxK9mkyZ-217" value="" style="rounded=1;whiteSpace=wrap;html=1;" vertex="1" parent="1">
          <mxGeometry x="870" y="1150" width="70" height="20" as="geometry" />
        </mxCell>
        <mxCell id="q4DOAjNo_ZyAKxK9mkyZ-218" value="2025/12/10" style="text;html=1;align=center;verticalAlign=middle;whiteSpace=wrap;rounded=0;fontSize=10;" vertex="1" parent="1">
          <mxGeometry x="870" y="1155" width="60" height="7.5" as="geometry" />
        </mxCell>
        <mxCell id="q4DOAjNo_ZyAKxK9mkyZ-219" value="" style="rounded=0;whiteSpace=wrap;html=1;" vertex="1" parent="1">
          <mxGeometry x="825" y="1240" width="120" height="20" as="geometry" />
        </mxCell>
        <mxCell id="q4DOAjNo_ZyAKxK9mkyZ-220" value="0/50" style="text;html=1;align=center;verticalAlign=middle;whiteSpace=wrap;rounded=0;" vertex="1" parent="1">
          <mxGeometry x="902.75" y="1132" width="37.25" height="12.5" as="geometry" />
        </mxCell>
        <mxCell id="q4DOAjNo_ZyAKxK9mkyZ-221" value="" style="rounded=0;whiteSpace=wrap;html=1;" vertex="1" parent="1">
          <mxGeometry x="1025" y="1045" width="120" height="210" as="geometry" />
        </mxCell>
        <mxCell id="q4DOAjNo_ZyAKxK9mkyZ-222" value="ToDo 更新" style="rounded=0;whiteSpace=wrap;html=1;" vertex="1" parent="1">
          <mxGeometry x="1025" y="1045" width="120" height="30" as="geometry" />
        </mxCell>
        <mxCell id="q4DOAjNo_ZyAKxK9mkyZ-223" value="AチームTODO更新画面&lt;div&gt;（準備完了）&lt;/div&gt;" style="text;html=1;align=center;verticalAlign=middle;whiteSpace=wrap;rounded=0;" vertex="1" parent="1">
          <mxGeometry x="1000" y="1005" width="170" height="30" as="geometry" />
        </mxCell>
        <mxCell id="q4DOAjNo_ZyAKxK9mkyZ-224" value="ToDo" style="text;html=1;align=center;verticalAlign=middle;whiteSpace=wrap;rounded=0;" vertex="1" parent="1">
          <mxGeometry x="1030" y="1085" width="30" height="15" as="geometry" />
        </mxCell>
        <mxCell id="q4DOAjNo_ZyAKxK9mkyZ-225" value="mtg場所の設定" style="rounded=1;whiteSpace=wrap;html=1;align=left;fontSize=10;" vertex="1" parent="1">
          <mxGeometry x="1030" y="1105" width="110" height="20" as="geometry" />
        </mxCell>
        <mxCell id="q4DOAjNo_ZyAKxK9mkyZ-226" value="期限" style="text;html=1;align=center;verticalAlign=middle;whiteSpace=wrap;rounded=0;" vertex="1" parent="1">
          <mxGeometry x="1030" y="1147.5" width="30" height="15" as="geometry" />
        </mxCell>
        <mxCell id="q4DOAjNo_ZyAKxK9mkyZ-227" value="" style="rounded=1;whiteSpace=wrap;html=1;" vertex="1" parent="1">
          <mxGeometry x="1070" y="1145" width="70" height="20" as="geometry" />
        </mxCell>
        <mxCell id="q4DOAjNo_ZyAKxK9mkyZ-228" value="2025/12/10" style="text;html=1;align=center;verticalAlign=middle;whiteSpace=wrap;rounded=0;fontSize=10;" vertex="1" parent="1">
          <mxGeometry x="1070" y="1150" width="60" height="7.5" as="geometry" />
        </mxCell>
        <mxCell id="q4DOAjNo_ZyAKxK9mkyZ-230" value="8/50" style="text;html=1;align=center;verticalAlign=middle;whiteSpace=wrap;rounded=0;" vertex="1" parent="1">
          <mxGeometry x="1102.75" y="1127" width="37.25" height="12.5" as="geometry" />
        </mxCell>
        <mxCell id="q4DOAjNo_ZyAKxK9mkyZ-231" value="" style="rounded=0;whiteSpace=wrap;html=1;" vertex="1" parent="1">
          <mxGeometry x="1215" y="1045" width="120" height="210" as="geometry" />
        </mxCell>
        <mxCell id="q4DOAjNo_ZyAKxK9mkyZ-232" value="ToDo 更新" style="rounded=0;whiteSpace=wrap;html=1;" vertex="1" parent="1">
          <mxGeometry x="1215" y="1045" width="120" height="30" as="geometry" />
        </mxCell>
        <mxCell id="q4DOAjNo_ZyAKxK9mkyZ-233" value="AチームTODO更新画面&lt;div&gt;（クライアントバリデーション失敗）&lt;/div&gt;" style="text;html=1;align=center;verticalAlign=middle;whiteSpace=wrap;rounded=0;" vertex="1" parent="1">
          <mxGeometry x="1190" y="995" width="170" height="45" as="geometry" />
        </mxCell>
        <mxCell id="q4DOAjNo_ZyAKxK9mkyZ-234" value="ToDo" style="text;html=1;align=center;verticalAlign=middle;whiteSpace=wrap;rounded=0;" vertex="1" parent="1">
          <mxGeometry x="1220" y="1085" width="30" height="15" as="geometry" />
        </mxCell>
        <mxCell id="q4DOAjNo_ZyAKxK9mkyZ-235" value="" style="rounded=1;whiteSpace=wrap;html=1;align=left;fontSize=10;" vertex="1" parent="1">
          <mxGeometry x="1220" y="1105" width="110" height="20" as="geometry" />
        </mxCell>
        <mxCell id="q4DOAjNo_ZyAKxK9mkyZ-236" value="期限" style="text;html=1;align=center;verticalAlign=middle;whiteSpace=wrap;rounded=0;" vertex="1" parent="1">
          <mxGeometry x="1220" y="1152.5" width="30" height="15" as="geometry" />
        </mxCell>
        <mxCell id="q4DOAjNo_ZyAKxK9mkyZ-237" value="" style="rounded=1;whiteSpace=wrap;html=1;" vertex="1" parent="1">
          <mxGeometry x="1260" y="1150" width="70" height="20" as="geometry" />
        </mxCell>
        <mxCell id="q4DOAjNo_ZyAKxK9mkyZ-238" value="2025/12/10" style="text;html=1;align=center;verticalAlign=middle;whiteSpace=wrap;rounded=0;fontSize=10;" vertex="1" parent="1">
          <mxGeometry x="1260" y="1155" width="60" height="7.5" as="geometry" />
        </mxCell>
        <mxCell id="q4DOAjNo_ZyAKxK9mkyZ-240" value="0/50" style="text;html=1;align=center;verticalAlign=middle;whiteSpace=wrap;rounded=0;" vertex="1" parent="1">
          <mxGeometry x="1292.75" y="1127" width="37.25" height="12.5" as="geometry" />
        </mxCell>
        <mxCell id="q4DOAjNo_ZyAKxK9mkyZ-241" value="1文字以上入力してください" style="text;html=1;align=left;verticalAlign=middle;whiteSpace=wrap;rounded=0;fontSize=8;" vertex="1" parent="1">
          <mxGeometry x="1220" y="1132" width="70" height="10" as="geometry" />
        </mxCell>
        <mxCell id="q4DOAjNo_ZyAKxK9mkyZ-242" value="" style="rounded=0;whiteSpace=wrap;html=1;" vertex="1" parent="1">
          <mxGeometry x="1025" y="1360" width="120" height="210" as="geometry" />
        </mxCell>
        <mxCell id="q4DOAjNo_ZyAKxK9mkyZ-243" value="ToDo 新規作成" style="rounded=0;whiteSpace=wrap;html=1;" vertex="1" parent="1">
          <mxGeometry x="1025" y="1360" width="120" height="30" as="geometry" />
        </mxCell>
        <mxCell id="q4DOAjNo_ZyAKxK9mkyZ-244" value="AチームTODO更新画面&lt;div&gt;（更新 or 削除中）&lt;/div&gt;" style="text;html=1;align=center;verticalAlign=middle;whiteSpace=wrap;rounded=0;" vertex="1" parent="1">
          <mxGeometry x="1000" y="1320" width="170" height="30" as="geometry" />
        </mxCell>
        <mxCell id="q4DOAjNo_ZyAKxK9mkyZ-245" value="ToDo" style="text;html=1;align=center;verticalAlign=middle;whiteSpace=wrap;rounded=0;" vertex="1" parent="1">
          <mxGeometry x="1030" y="1400" width="30" height="15" as="geometry" />
        </mxCell>
        <mxCell id="q4DOAjNo_ZyAKxK9mkyZ-246" value="mtg場所の設定" style="rounded=1;whiteSpace=wrap;html=1;align=left;fontSize=10;" vertex="1" parent="1">
          <mxGeometry x="1030" y="1420" width="110" height="20" as="geometry" />
        </mxCell>
        <mxCell id="q4DOAjNo_ZyAKxK9mkyZ-247" value="期限" style="text;html=1;align=center;verticalAlign=middle;whiteSpace=wrap;rounded=0;" vertex="1" parent="1">
          <mxGeometry x="1030" y="1462.5" width="30" height="15" as="geometry" />
        </mxCell>
        <mxCell id="q4DOAjNo_ZyAKxK9mkyZ-248" value="" style="rounded=1;whiteSpace=wrap;html=1;" vertex="1" parent="1">
          <mxGeometry x="1070" y="1460" width="70" height="20" as="geometry" />
        </mxCell>
        <mxCell id="q4DOAjNo_ZyAKxK9mkyZ-249" value="2025/12/10" style="text;html=1;align=center;verticalAlign=middle;whiteSpace=wrap;rounded=0;fontSize=10;" vertex="1" parent="1">
          <mxGeometry x="1070" y="1465" width="60" height="7.5" as="geometry" />
        </mxCell>
        <mxCell id="q4DOAjNo_ZyAKxK9mkyZ-250" value="作成" style="rounded=0;whiteSpace=wrap;html=1;" vertex="1" parent="1">
          <mxGeometry x="1025" y="1550" width="120" height="20" as="geometry" />
        </mxCell>
        <mxCell id="q4DOAjNo_ZyAKxK9mkyZ-251" value="8/50" style="text;html=1;align=center;verticalAlign=middle;whiteSpace=wrap;rounded=0;" vertex="1" parent="1">
          <mxGeometry x="1102.75" y="1442" width="37.25" height="12.5" as="geometry" />
        </mxCell>
        <mxCell id="q4DOAjNo_ZyAKxK9mkyZ-252" value="" style="rounded=0;whiteSpace=wrap;html=1;strokeColor=none;opacity=70;fillColor=#000000;" vertex="1" parent="1">
          <mxGeometry x="1025" y="1360" width="120" height="210" as="geometry" />
        </mxCell>
        <mxCell id="q4DOAjNo_ZyAKxK9mkyZ-253" value="更新中..." style="text;html=1;align=center;verticalAlign=middle;whiteSpace=wrap;rounded=0;fontColor=#FFFFFF;" vertex="1" parent="1">
          <mxGeometry x="1048.5" y="1440" width="73" height="30" as="geometry" />
        </mxCell>
        <mxCell id="q4DOAjNo_ZyAKxK9mkyZ-254" value="" style="rounded=0;whiteSpace=wrap;html=1;" vertex="1" parent="1">
          <mxGeometry x="1215" y="1360" width="120" height="210" as="geometry" />
        </mxCell>
        <mxCell id="q4DOAjNo_ZyAKxK9mkyZ-255" value="ToDo 新規作成" style="rounded=0;whiteSpace=wrap;html=1;" vertex="1" parent="1">
          <mxGeometry x="1215" y="1360" width="120" height="30" as="geometry" />
        </mxCell>
        <mxCell id="q4DOAjNo_ZyAKxK9mkyZ-256" value="AチームTODO更新画面&lt;div&gt;（更新 or 削除成功）&lt;/div&gt;" style="text;html=1;align=center;verticalAlign=middle;whiteSpace=wrap;rounded=0;" vertex="1" parent="1">
          <mxGeometry x="1190" y="1320" width="170" height="30" as="geometry" />
        </mxCell>
        <mxCell id="q4DOAjNo_ZyAKxK9mkyZ-257" value="ToDo" style="text;html=1;align=center;verticalAlign=middle;whiteSpace=wrap;rounded=0;" vertex="1" parent="1">
          <mxGeometry x="1220" y="1400" width="30" height="15" as="geometry" />
        </mxCell>
        <mxCell id="q4DOAjNo_ZyAKxK9mkyZ-258" value="mtg場所の設定" style="rounded=1;whiteSpace=wrap;html=1;align=left;fontSize=10;" vertex="1" parent="1">
          <mxGeometry x="1220" y="1420" width="110" height="20" as="geometry" />
        </mxCell>
        <mxCell id="q4DOAjNo_ZyAKxK9mkyZ-259" value="期限" style="text;html=1;align=center;verticalAlign=middle;whiteSpace=wrap;rounded=0;" vertex="1" parent="1">
          <mxGeometry x="1220" y="1462.5" width="30" height="15" as="geometry" />
        </mxCell>
        <mxCell id="q4DOAjNo_ZyAKxK9mkyZ-260" value="" style="rounded=1;whiteSpace=wrap;html=1;" vertex="1" parent="1">
          <mxGeometry x="1260" y="1460" width="70" height="20" as="geometry" />
        </mxCell>
        <mxCell id="q4DOAjNo_ZyAKxK9mkyZ-261" value="2025/12/10" style="text;html=1;align=center;verticalAlign=middle;whiteSpace=wrap;rounded=0;fontSize=10;" vertex="1" parent="1">
          <mxGeometry x="1260" y="1465" width="60" height="7.5" as="geometry" />
        </mxCell>
        <mxCell id="q4DOAjNo_ZyAKxK9mkyZ-262" value="作成" style="rounded=0;whiteSpace=wrap;html=1;" vertex="1" parent="1">
          <mxGeometry x="1215" y="1550" width="120" height="20" as="geometry" />
        </mxCell>
        <mxCell id="q4DOAjNo_ZyAKxK9mkyZ-263" value="8/50" style="text;html=1;align=center;verticalAlign=middle;whiteSpace=wrap;rounded=0;" vertex="1" parent="1">
          <mxGeometry x="1292.75" y="1442" width="37.25" height="12.5" as="geometry" />
        </mxCell>
        <mxCell id="q4DOAjNo_ZyAKxK9mkyZ-264" value="" style="rounded=0;whiteSpace=wrap;html=1;strokeColor=none;opacity=70;fillColor=#000000;" vertex="1" parent="1">
          <mxGeometry x="1215" y="1360" width="120" height="210" as="geometry" />
        </mxCell>
        <mxCell id="q4DOAjNo_ZyAKxK9mkyZ-265" value="更新しました。&lt;div&gt;一覧画面に表示されます。&lt;/div&gt;&lt;div&gt;&lt;br&gt;&lt;/div&gt;&lt;div&gt;&lt;br&gt;&lt;/div&gt;" style="rounded=1;whiteSpace=wrap;html=1;fontSize=8;" vertex="1" parent="1">
          <mxGeometry x="1220" y="1425" width="110" height="60" as="geometry" />
        </mxCell>
        <mxCell id="q4DOAjNo_ZyAKxK9mkyZ-266" value="" style="endArrow=none;html=1;rounded=0;" edge="1" parent="1">
          <mxGeometry width="50" height="50" relative="1" as="geometry">
            <mxPoint x="1220" y="1465" as="sourcePoint" />
            <mxPoint x="1330" y="1465" as="targetPoint" />
          </mxGeometry>
        </mxCell>
        <mxCell id="q4DOAjNo_ZyAKxK9mkyZ-267" value="一覧画面に戻る" style="text;html=1;align=center;verticalAlign=middle;whiteSpace=wrap;rounded=0;fontSize=8;" vertex="1" parent="1">
          <mxGeometry x="1245" y="1465" width="60" height="20" as="geometry" />
        </mxCell>
        <mxCell id="q4DOAjNo_ZyAKxK9mkyZ-268" value="" style="rounded=0;whiteSpace=wrap;html=1;" vertex="1" parent="1">
          <mxGeometry x="1415" y="1360" width="120" height="210" as="geometry" />
        </mxCell>
        <mxCell id="q4DOAjNo_ZyAKxK9mkyZ-269" value="ToDo 新規作成" style="rounded=0;whiteSpace=wrap;html=1;" vertex="1" parent="1">
          <mxGeometry x="1415" y="1360" width="120" height="30" as="geometry" />
        </mxCell>
        <mxCell id="q4DOAjNo_ZyAKxK9mkyZ-270" value="AチームTODO更新画面&lt;div&gt;（更新 or 削除失敗）&lt;/div&gt;" style="text;html=1;align=center;verticalAlign=middle;whiteSpace=wrap;rounded=0;" vertex="1" parent="1">
          <mxGeometry x="1390" y="1320" width="170" height="30" as="geometry" />
        </mxCell>
        <mxCell id="q4DOAjNo_ZyAKxK9mkyZ-271" value="ToDo" style="text;html=1;align=center;verticalAlign=middle;whiteSpace=wrap;rounded=0;" vertex="1" parent="1">
          <mxGeometry x="1420" y="1400" width="30" height="15" as="geometry" />
        </mxCell>
        <mxCell id="q4DOAjNo_ZyAKxK9mkyZ-272" value="mtg場所の設定" style="rounded=1;whiteSpace=wrap;html=1;align=left;fontSize=10;" vertex="1" parent="1">
          <mxGeometry x="1420" y="1420" width="110" height="20" as="geometry" />
        </mxCell>
        <mxCell id="q4DOAjNo_ZyAKxK9mkyZ-273" value="期限" style="text;html=1;align=center;verticalAlign=middle;whiteSpace=wrap;rounded=0;" vertex="1" parent="1">
          <mxGeometry x="1420" y="1462.5" width="30" height="15" as="geometry" />
        </mxCell>
        <mxCell id="q4DOAjNo_ZyAKxK9mkyZ-274" value="" style="rounded=1;whiteSpace=wrap;html=1;" vertex="1" parent="1">
          <mxGeometry x="1460" y="1460" width="70" height="20" as="geometry" />
        </mxCell>
        <mxCell id="q4DOAjNo_ZyAKxK9mkyZ-275" value="2025/12/10" style="text;html=1;align=center;verticalAlign=middle;whiteSpace=wrap;rounded=0;fontSize=10;" vertex="1" parent="1">
          <mxGeometry x="1460" y="1465" width="60" height="7.5" as="geometry" />
        </mxCell>
        <mxCell id="q4DOAjNo_ZyAKxK9mkyZ-276" value="作成" style="rounded=0;whiteSpace=wrap;html=1;" vertex="1" parent="1">
          <mxGeometry x="1415" y="1550" width="120" height="20" as="geometry" />
        </mxCell>
        <mxCell id="q4DOAjNo_ZyAKxK9mkyZ-277" value="8/50" style="text;html=1;align=center;verticalAlign=middle;whiteSpace=wrap;rounded=0;" vertex="1" parent="1">
          <mxGeometry x="1492.75" y="1442" width="37.25" height="12.5" as="geometry" />
        </mxCell>
        <mxCell id="q4DOAjNo_ZyAKxK9mkyZ-278" value="" style="rounded=0;whiteSpace=wrap;html=1;strokeColor=none;opacity=70;fillColor=#000000;" vertex="1" parent="1">
          <mxGeometry x="1415" y="1360" width="120" height="210" as="geometry" />
        </mxCell>
        <mxCell id="q4DOAjNo_ZyAKxK9mkyZ-279" value="&lt;div&gt;更新に失敗しました。&lt;/div&gt;&lt;div&gt;ネットワーク接続状況を&lt;/div&gt;&lt;div&gt;ご確認ください。&lt;/div&gt;&lt;div&gt;&lt;br&gt;&lt;/div&gt;&lt;div&gt;&lt;br&gt;&lt;/div&gt;" style="rounded=1;whiteSpace=wrap;html=1;fontSize=8;" vertex="1" parent="1">
          <mxGeometry x="1420" y="1425" width="110" height="60" as="geometry" />
        </mxCell>
        <mxCell id="q4DOAjNo_ZyAKxK9mkyZ-280" value="" style="endArrow=none;html=1;rounded=0;" edge="1" parent="1">
          <mxGeometry width="50" height="50" relative="1" as="geometry">
            <mxPoint x="1420" y="1465" as="sourcePoint" />
            <mxPoint x="1530" y="1465" as="targetPoint" />
          </mxGeometry>
        </mxCell>
        <mxCell id="q4DOAjNo_ZyAKxK9mkyZ-281" value="OK" style="text;html=1;align=center;verticalAlign=middle;whiteSpace=wrap;rounded=0;fontSize=8;" vertex="1" parent="1">
          <mxGeometry x="1445" y="1465" width="60" height="20" as="geometry" />
        </mxCell>
        <mxCell id="q4DOAjNo_ZyAKxK9mkyZ-284" value="更新" style="rounded=0;whiteSpace=wrap;html=1;" vertex="1" parent="1">
          <mxGeometry x="825" y="1240" width="85" height="20" as="geometry" />
        </mxCell>
        <mxCell id="q4DOAjNo_ZyAKxK9mkyZ-286" value="削除" style="rounded=0;whiteSpace=wrap;html=1;" vertex="1" parent="1">
          <mxGeometry x="910" y="1240" width="35" height="20" as="geometry" />
        </mxCell>
        <mxCell id="q4DOAjNo_ZyAKxK9mkyZ-288" value="" style="group" vertex="1" connectable="0" parent="1">
          <mxGeometry x="250" y="-110" width="100" height="30" as="geometry" />
        </mxCell>
        <mxCell id="q4DOAjNo_ZyAKxK9mkyZ-16" value="" style="rounded=0;whiteSpace=wrap;html=1;container=0;" vertex="1" parent="q4DOAjNo_ZyAKxK9mkyZ-288">
          <mxGeometry width="100" height="30" as="geometry" />
        </mxCell>
        <mxCell id="q4DOAjNo_ZyAKxK9mkyZ-17" value="" style="ellipse;whiteSpace=wrap;html=1;aspect=fixed;container=0;" vertex="1" parent="q4DOAjNo_ZyAKxK9mkyZ-288">
          <mxGeometry x="5" y="5" width="10" height="10" as="geometry" />
        </mxCell>
        <mxCell id="q4DOAjNo_ZyAKxK9mkyZ-18" value="mtgを設定する" style="text;html=1;align=left;verticalAlign=middle;whiteSpace=wrap;rounded=0;fontSize=8;container=0;" vertex="1" parent="q4DOAjNo_ZyAKxK9mkyZ-288">
          <mxGeometry x="17.5" width="65" height="20" as="geometry" />
        </mxCell>
        <mxCell id="q4DOAjNo_ZyAKxK9mkyZ-287" value="期限: 10/25" style="text;html=1;align=center;verticalAlign=middle;whiteSpace=wrap;rounded=0;fontSize=8;" vertex="1" parent="q4DOAjNo_ZyAKxK9mkyZ-288">
          <mxGeometry x="55" y="15" width="45" height="15" as="geometry" />
        </mxCell>
        <mxCell id="q4DOAjNo_ZyAKxK9mkyZ-295" value="" style="group" vertex="1" connectable="0" parent="1">
          <mxGeometry x="420" y="30" width="100" height="30" as="geometry" />
        </mxCell>
        <mxCell id="q4DOAjNo_ZyAKxK9mkyZ-296" value="" style="rounded=0;whiteSpace=wrap;html=1;container=0;" vertex="1" parent="q4DOAjNo_ZyAKxK9mkyZ-295">
          <mxGeometry width="100" height="30" as="geometry" />
        </mxCell>
        <mxCell id="q4DOAjNo_ZyAKxK9mkyZ-297" value="" style="ellipse;whiteSpace=wrap;html=1;aspect=fixed;container=0;" vertex="1" parent="q4DOAjNo_ZyAKxK9mkyZ-295">
          <mxGeometry x="5" y="5" width="10" height="10" as="geometry" />
        </mxCell>
        <mxCell id="q4DOAjNo_ZyAKxK9mkyZ-298" value="mtgを設定する" style="text;html=1;align=left;verticalAlign=middle;whiteSpace=wrap;rounded=0;fontSize=8;container=0;" vertex="1" parent="q4DOAjNo_ZyAKxK9mkyZ-295">
          <mxGeometry x="17.5" width="65" height="20" as="geometry" />
        </mxCell>
        <mxCell id="q4DOAjNo_ZyAKxK9mkyZ-299" value="期限: 10/25" style="text;html=1;align=center;verticalAlign=middle;whiteSpace=wrap;rounded=0;fontSize=8;" vertex="1" parent="q4DOAjNo_ZyAKxK9mkyZ-295">
          <mxGeometry x="55" y="15" width="45" height="15" as="geometry" />
        </mxCell>
        <mxCell id="q4DOAjNo_ZyAKxK9mkyZ-300" value="" style="group" vertex="1" connectable="0" parent="1">
          <mxGeometry x="420" y="67.5" width="100" height="30" as="geometry" />
        </mxCell>
        <mxCell id="q4DOAjNo_ZyAKxK9mkyZ-301" value="" style="rounded=0;whiteSpace=wrap;html=1;container=0;" vertex="1" parent="q4DOAjNo_ZyAKxK9mkyZ-300">
          <mxGeometry width="100" height="30" as="geometry" />
        </mxCell>
        <mxCell id="q4DOAjNo_ZyAKxK9mkyZ-302" value="" style="ellipse;whiteSpace=wrap;html=1;aspect=fixed;container=0;" vertex="1" parent="q4DOAjNo_ZyAKxK9mkyZ-300">
          <mxGeometry x="5" y="5" width="10" height="10" as="geometry" />
        </mxCell>
        <mxCell id="q4DOAjNo_ZyAKxK9mkyZ-303" value="勤怠を入力する" style="text;html=1;align=left;verticalAlign=middle;whiteSpace=wrap;rounded=0;fontSize=8;container=0;" vertex="1" parent="q4DOAjNo_ZyAKxK9mkyZ-300">
          <mxGeometry x="17.5" width="65" height="20" as="geometry" />
        </mxCell>
        <mxCell id="q4DOAjNo_ZyAKxK9mkyZ-304" value="期限: 10/24" style="text;html=1;align=center;verticalAlign=middle;whiteSpace=wrap;rounded=0;fontSize=8;" vertex="1" parent="q4DOAjNo_ZyAKxK9mkyZ-300">
          <mxGeometry x="55" y="15" width="45" height="15" as="geometry" />
        </mxCell>
        <mxCell id="q4DOAjNo_ZyAKxK9mkyZ-308" value="" style="group" vertex="1" connectable="0" parent="1">
          <mxGeometry x="420" y="105" width="100" height="30" as="geometry" />
        </mxCell>
        <mxCell id="q4DOAjNo_ZyAKxK9mkyZ-309" value="" style="rounded=0;whiteSpace=wrap;html=1;container=0;" vertex="1" parent="q4DOAjNo_ZyAKxK9mkyZ-308">
          <mxGeometry width="100" height="30" as="geometry" />
        </mxCell>
        <mxCell id="q4DOAjNo_ZyAKxK9mkyZ-310" value="" style="ellipse;whiteSpace=wrap;html=1;aspect=fixed;container=0;" vertex="1" parent="q4DOAjNo_ZyAKxK9mkyZ-308">
          <mxGeometry x="5" y="5" width="10" height="10" as="geometry" />
        </mxCell>
        <mxCell id="q4DOAjNo_ZyAKxK9mkyZ-311" value="自己研鑽をする" style="text;html=1;align=left;verticalAlign=middle;whiteSpace=wrap;rounded=0;fontSize=8;container=0;" vertex="1" parent="q4DOAjNo_ZyAKxK9mkyZ-308">
          <mxGeometry x="17.5" width="65" height="20" as="geometry" />
        </mxCell>
        <mxCell id="q4DOAjNo_ZyAKxK9mkyZ-312" value="期限: 10/23（期限切れ）" style="text;html=1;align=center;verticalAlign=middle;whiteSpace=wrap;rounded=0;fontSize=8;" vertex="1" parent="q4DOAjNo_ZyAKxK9mkyZ-308">
          <mxGeometry x="10" y="15" width="90" height="15" as="geometry" />
        </mxCell>
      </root>
    </mxGraphModel>
  </diagram>
</mxfile>
